<svg width="502" height="109" viewBox="0 0 502 109" fill="none" xmlns="http://www.w3.org/2000/svg">
<path d="M156.645 81.4936C150.337 81.4936 145.103 80.0845 140.943 77.2661C136.782 74.4477 134.232 70.1866 133.293 64.4827L142.956 62.1676C143.493 64.9189 144.399 67.0998 145.674 68.7103C146.949 70.3208 148.526 71.4616 150.405 72.1326C152.351 72.8036 154.431 73.1392 156.645 73.1392C159.933 73.1392 162.45 72.5017 164.194 71.2267C166.006 69.9517 166.912 68.3077 166.912 66.2945C166.912 64.2814 166.073 62.8051 164.396 61.8657C162.718 60.9262 160.235 60.1545 156.947 59.5506L153.525 58.9466C150.17 58.3427 147.116 57.4703 144.365 56.3296C141.614 55.1888 139.433 53.6118 137.823 51.5987C136.212 49.5856 135.407 47.0021 135.407 43.8482C135.407 39.1509 137.151 35.5272 140.641 32.9773C144.13 30.3602 148.76 29.0517 154.531 29.0517C160.101 29.0517 164.664 30.3267 168.221 32.8766C171.844 35.3595 174.193 38.7482 175.267 43.0429L165.604 45.7606C165 42.7409 163.725 40.6272 161.779 39.4193C159.833 38.1443 157.417 37.5068 154.531 37.5068C151.713 37.5068 149.499 38.0436 147.888 39.1173C146.278 40.1239 145.472 41.5666 145.472 43.4455C145.472 45.4587 146.244 46.935 147.787 47.8744C149.398 48.8139 151.545 49.5185 154.229 49.9882L157.752 50.5921C161.309 51.1961 164.564 52.0349 167.516 53.1086C170.469 54.1822 172.784 55.7256 174.461 57.7387C176.206 59.7519 177.078 62.436 177.078 65.7912C177.078 70.757 175.233 74.6155 171.542 77.3667C167.852 80.118 162.886 81.4936 156.645 81.4936Z" fill="white"/>
<path d="M207.415 81.4936C202.45 81.4936 198.021 80.4871 194.129 78.474C190.304 76.3937 187.284 73.4411 185.07 69.6162C182.855 65.7913 181.748 61.2617 181.748 56.0276V54.5177C181.748 49.2836 182.855 44.7876 185.07 41.0298C187.284 37.2048 190.304 34.2523 194.129 32.172C198.021 30.0918 202.45 29.0517 207.415 29.0517C212.381 29.0517 216.81 30.0918 220.702 32.172C224.594 34.2523 227.647 37.2048 229.862 41.0298C232.076 44.7876 233.183 49.2836 233.183 54.5177V56.0276C233.183 61.2617 232.076 65.7913 229.862 69.6162C227.647 73.4411 224.594 76.3937 220.702 78.474C216.81 80.4871 212.381 81.4936 207.415 81.4936ZM207.415 72.2333C211.978 72.2333 215.669 70.7905 218.488 67.905C221.373 64.9524 222.816 60.8926 222.816 55.7256V54.8197C222.816 49.6527 221.407 45.6264 218.588 42.7409C215.77 39.7884 212.046 38.3121 207.415 38.3121C202.919 38.3121 199.229 39.7884 196.343 42.7409C193.525 45.6264 192.116 49.6527 192.116 54.8197V55.7256C192.116 60.8926 193.525 64.9524 196.343 67.905C199.229 70.7905 202.919 72.2333 207.415 72.2333Z" fill="white"/>
<path d="M248.149 80.0845V39.218H234.258V30.4609H248.149V19.59C248.149 16.5703 249.055 14.1545 250.867 12.3427C252.678 10.5309 255.094 9.625 258.114 9.625H270.897V18.3821H261.436C259.49 18.3821 258.517 19.3887 258.517 21.4018V30.4609H272.81V39.218H258.517V80.0845H248.149Z" fill="white"/>
<path d="M295.735 80.0845C292.715 80.0845 290.3 79.1785 288.488 77.3667C286.743 75.5549 285.871 73.1392 285.871 70.1195V39.218H272.181V30.4609H285.871V14.0539H296.238V30.4609H311.035V39.218H296.238V68.3077C296.238 70.3208 297.178 71.3274 299.057 71.3274H309.424V80.0845H295.735Z" fill="white"/>
<path d="M313.997 55.5243V54.0145C313.997 48.7803 315.037 44.3179 317.117 40.6272C319.265 36.9364 322.083 34.0845 325.573 32.0714C329.062 30.0582 332.887 29.0517 337.047 29.0517C341.879 29.0517 345.57 29.9576 348.12 31.7694C350.737 33.5812 352.649 35.5272 353.857 37.6075H355.467V30.4609H365.533V90.2507C365.533 93.2704 364.627 95.6862 362.815 97.498C361.071 99.3098 358.655 100.216 355.568 100.216H322.15V91.1567H352.347C354.293 91.1567 355.266 90.1501 355.266 88.137V72.3339H353.656C352.918 73.5418 351.877 74.7832 350.535 76.0582C349.193 77.3332 347.415 78.3733 345.201 79.1785C343.053 79.9838 340.335 80.3864 337.047 80.3864C332.887 80.3864 329.028 79.4134 325.472 77.4674C321.982 75.4543 319.198 72.6023 317.117 68.9116C315.037 65.1538 313.997 60.6913 313.997 55.5243ZM339.866 71.3274C344.362 71.3274 348.052 69.9182 350.938 67.0998C353.891 64.2143 355.367 60.2552 355.367 55.2223V54.3164C355.367 49.1494 353.924 45.1903 351.039 42.439C348.153 39.6206 344.429 38.2114 339.866 38.2114C335.437 38.2114 331.746 39.6206 328.794 42.439C325.908 45.1903 324.465 49.1494 324.465 54.3164V55.2223C324.465 60.2552 325.908 64.2143 328.794 67.0998C331.746 69.9182 335.437 71.3274 339.866 71.3274Z" fill="white"/>
<path d="M398.513 81.4936C393.48 81.4936 389.085 80.4535 385.327 78.3733C381.569 76.226 378.617 73.2398 376.469 69.4149C374.389 65.5228 373.349 61.0269 373.349 55.9269V54.7191C373.349 49.552 374.389 45.056 376.469 41.2311C378.549 37.339 381.435 34.3529 385.126 32.2727C388.884 30.1253 393.212 29.0517 398.11 29.0517C402.875 29.0517 407.035 30.1253 410.592 32.2727C414.215 34.3529 417.034 37.2719 419.047 41.0298C421.06 44.7876 422.067 49.183 422.067 54.2158V58.1414H383.918C384.052 62.5031 385.495 65.9926 388.246 68.6096C391.064 71.1596 394.554 72.4346 398.714 72.4346C402.606 72.4346 405.525 71.5622 407.471 69.8175C409.485 68.0728 411.028 66.0597 412.102 63.7781L420.657 68.207C419.718 70.0859 418.342 72.0655 416.53 74.1457C414.786 76.226 412.471 77.9707 409.585 79.3799C406.7 80.789 403.009 81.4936 398.513 81.4936ZM384.018 50.1895H411.498C411.229 46.4317 409.887 43.5126 407.471 41.4324C405.056 39.2851 401.902 38.2114 398.01 38.2114C394.118 38.2114 390.93 39.2851 388.447 41.4324C386.032 43.5126 384.555 46.4317 384.018 50.1895Z" fill="white"/>
<path d="M429.514 80.0845V30.4609H439.68V37.9094H441.29C442.23 35.8963 443.907 34.0174 446.323 32.2727C448.739 30.528 452.329 29.6556 457.093 29.6556C460.851 29.6556 464.173 30.4944 467.058 32.172C470.011 33.8496 472.326 36.2318 474.004 39.3186C475.681 42.3383 476.52 45.9955 476.52 50.2902V80.0845H466.153V51.0954C466.153 46.8008 465.079 43.6469 462.932 41.6337C460.784 39.5535 457.832 38.5134 454.074 38.5134C449.779 38.5134 446.323 39.9226 443.706 42.7409C441.156 45.5593 439.881 49.6527 439.881 55.021V80.0845H429.514Z" fill="white"/>
<path d="M494.755 80.8076C498.552 80.8076 501.407 77.952 501.407 74.1549C501.407 70.3578 498.552 67.5022 494.755 67.5022C490.958 67.5022 488.039 70.3892 488.039 74.1549C488.039 77.9206 490.926 80.8076 494.755 80.8076ZM494.755 79.6151C491.617 79.6151 489.326 77.293 489.326 74.1549C489.326 71.0168 491.617 68.6947 494.755 68.6947C497.861 68.6947 500.152 71.0168 500.152 74.1549C500.152 77.293 497.861 79.6151 494.755 79.6151ZM493.342 77.7951V75.0963H495.131L496.543 77.7951H497.956L496.324 74.7825C497.297 74.4059 497.83 73.5587 497.83 72.5859C497.83 71.1424 496.732 70.2951 495.068 70.2951H492.056V77.7951H493.342ZM496.481 72.68C496.481 73.4645 495.947 73.9352 495.037 73.9352H493.342V71.5189H495.037C495.979 71.5189 496.481 71.8955 496.481 72.68Z" fill="white"/>
<g clip-path="url(#clip0_1503_305)">
<path d="M21.7227 92.6837L24.7012 89.6003C27.1119 87.1022 30.4224 85.6697 33.8988 85.6086L75.6942 84.9011C79.1706 84.8399 82.5247 86.1676 85.0228 88.5784L88.1062 91.5656L71.7898 108.441L54.9144 92.1246L38.598 109L21.7227 92.6837Z" fill="white"/>
<path d="M16.3164 21.7231L19.3997 24.7017C21.8978 27.1124 23.3303 30.4229 23.3915 33.8993L24.099 75.6947C24.1601 79.1711 22.8324 82.5252 20.4217 85.0233L17.4344 88.1067L0.550284 71.7903L16.8667 54.9149L0 38.5985L16.3164 21.7231Z" fill="white"/>
<path d="M87.2781 16.3164L84.2995 19.3997C81.8888 21.8978 78.5783 23.3303 75.1019 23.3915L33.3065 24.099C29.8301 24.1601 26.476 22.8324 23.9779 20.4217L20.8945 17.4344L37.2109 0.550284L54.0863 16.8667L70.4027 0L87.2781 16.3164Z" fill="white"/>
<path d="M92.6831 87.2768L89.5997 84.2983C87.1016 81.8875 85.6691 78.5771 85.608 75.1007L84.9005 33.3053C84.8393 29.8289 86.167 26.4748 88.5778 23.9767L91.565 20.8933L108.44 37.2097L92.124 54.0851L108.999 70.4014L92.6831 87.2768Z" fill="white"/>
</g>
<defs>
<clipPath id="clip0_1503_305">
<rect width="109" height="109" fill="white"/>
</clipPath>
</defs>
</svg>
