<svg width="109" height="109" viewBox="0 0 109 109" fill="none" xmlns="http://www.w3.org/2000/svg">
<mask id="mask0_126_18" style="mask-type:luminance" maskUnits="userSpaceOnUse" x="0" y="0" width="109" height="109">
<path d="M109 0H0V109H109V0Z" fill="white"/>
</mask>
<g mask="url(#mask0_126_18)">
<path d="M21.7227 92.6836L24.7012 89.6002C27.1119 87.1021 30.4224 85.6695 33.8988 85.6084L75.6942 84.901C79.1706 84.8398 82.5247 86.1675 85.0228 88.5783L88.1062 91.5654L71.7898 108.441L54.9144 92.1245L38.598 109L21.7227 92.6836Z" fill="white"/>
<path d="M16.3164 21.7231L19.3997 24.7017C21.8978 27.1124 23.3303 30.4229 23.3915 33.8993L24.099 75.6947C24.1601 79.1711 22.8324 82.5252 20.4217 85.0233L17.4344 88.1067L0.550284 71.7903L16.8667 54.9149L0 38.5985L16.3164 21.7231Z" fill="white"/>
<path d="M87.2781 16.3164L84.2995 19.3997C81.8888 21.8978 78.5783 23.3303 75.1019 23.3915L33.3065 24.099C29.8301 24.1601 26.476 22.8324 23.9779 20.4217L20.8945 17.4344L37.2109 0.550284L54.0863 16.8667L70.4027 0L87.2781 16.3164Z" fill="white"/>
<path d="M92.6831 87.2766L89.5997 84.2981C87.1016 81.8873 85.6691 78.5769 85.608 75.1005L84.9005 33.3051C84.8393 29.8287 86.167 26.4746 88.5778 23.9765L91.565 20.8931L108.44 37.2095L92.124 54.0849L108.999 70.4012L92.6831 87.2766Z" fill="white"/>
</g>
</svg>
